<svg xmlns="http://www.w3.org/2000/svg" width="183.405" height="173.63" viewBox="0 0 183.405 173.63">
  <path id="Clip" d="M171.216,34.814a41.681,41.681,0,0,0-58.946,0l-65.705,65.7a25.009,25.009,0,1,0,35.369,35.367L125.2,92.621A8.336,8.336,0,0,0,113.41,80.832L70.144,124.1a8.337,8.337,0,1,1-11.79-11.789l65.705-65.7a25.009,25.009,0,0,1,35.369,35.368l-71.6,71.6A41.682,41.682,0,1,1,28.882,94.624l71.6-71.6A8.336,8.336,0,1,0,88.69,11.235l-71.6,71.6a58.354,58.354,0,0,0,82.525,82.526l71.6-71.6A41.73,41.73,0,0,0,171.216,34.814Z" transform="translate(0 -8.794)" fill="#959191"/>
</svg>
