<svg id="_1" data-name="1" xmlns="http://www.w3.org/2000/svg" width="519.208" height="519.209" viewBox="0 0 519.208 519.209">
  <path id="Path_3377" data-name="Path 3377" d="M250.635,427.919a26.855,26.855,0,0,0,37.98,0L389.894,326.641a26.856,26.856,0,1,0-37.979-37.979l-55.433,55.433V50.855a26.855,26.855,0,1,0-53.71,0V344.095l-55.434-55.433a26.856,26.856,0,1,0-37.98,37.979Z" transform="translate(-10.021 -24)" fill="#fcfcfc"/>
  <path id="Path_3378" data-name="Path 3378" d="M516.352,232A26.856,26.856,0,0,0,489.5,258.856V464.749H77.711V258.856a26.855,26.855,0,1,0-53.711,0V473.7a44.76,44.76,0,0,0,44.759,44.76H498.448a44.76,44.76,0,0,0,44.759-44.76V258.856A26.856,26.856,0,0,0,516.352,232Z" transform="translate(-24 0.749)" fill="#fcfcfc"/>
</svg>
