<svg xmlns="http://www.w3.org/2000/svg" width="831.299" height="609.824" viewBox="0 0 831.299 609.824">
  <g id="image_icon_2" transform="translate(0.223 -68.267)">
    <g id="Group_844" data-name="Group 844" transform="translate(-0.223 68.267)">
      <g id="Group_843" data-name="Group 843" transform="translate(0 0)">
        <path id="Path_3374" data-name="Path 3374" d="M742.231,68.267H89.068C39.877,68.267,0,109.221,0,159.741V586.618c0,50.52,39.877,91.474,89.068,91.474H742.231c49.191,0,89.068-40.954,89.068-91.474V159.741C831.3,109.221,791.422,68.267,742.231,68.267Zm29.688,353.271L585.086,229.658a29.138,29.138,0,0,0-41.98,0L296.893,482.52,199.125,382.111a29.138,29.138,0,0,0-41.98,0L59.378,482.52V159.741c0-16.84,13.292-30.492,29.69-30.492H742.231c16.4,0,29.69,13.652,29.69,30.492v261.8Z" transform="translate(0 -68.267)" fill="#d9d9d9"/>
      </g>
    </g>
  </g>
</svg>
