<svg id="happy" xmlns="http://www.w3.org/2000/svg" width="209.738" height="209.738" viewBox="0 0 209.738 209.738">
  <g id="Group_893" data-name="Group 893">
    <g id="Group_892" data-name="Group 892">
      <path id="Path_3410" data-name="Path 3410" d="M104.869,0A104.869,104.869,0,1,0,209.738,104.869,104.869,104.869,0,0,0,104.869,0Zm0,196.63a91.76,91.76,0,1,1,91.76-91.76A91.76,91.76,0,0,1,104.869,196.63Z" fill="#959191"/>
    </g>
  </g>
  <g id="Group_895" data-name="Group 895" transform="translate(58.529 57.263)">
    <g id="Group_894" data-name="Group 894" transform="translate(0 0)">
      <circle id="Ellipse_58" data-name="Ellipse 58" cx="12.542" cy="12.542" r="12.542" transform="translate(0 0)" fill="#959191"/>
    </g>
  </g>
  <g id="Group_897" data-name="Group 897" transform="translate(125.418 57.263)">
    <g id="Group_896" data-name="Group 896" transform="translate(0 0)">
      <circle id="Ellipse_59" data-name="Ellipse 59" cx="12.542" cy="12.542" r="12.542" transform="translate(0 0)" fill="#959191"/>
    </g>
  </g>
  <g id="Group_899" data-name="Group 899" transform="translate(45.88 104.869)">
    <g id="Group_898" data-name="Group 898">
      <path id="Path_3411" data-name="Path 3411" d="M216.869,256a45.88,45.88,0,1,1-91.76,0H112a58.989,58.989,0,1,0,117.978,0Z" transform="translate(-112 -256)" fill="#959191"/>
    </g>
  </g>
</svg>
