<svg xmlns="http://www.w3.org/2000/svg" width="231.797" height="324.662" viewBox="0 0 231.797 324.662">
  <g id="microphone" transform="translate(-35.782)">
    <path id="Path_3412" data-name="Path 3412" d="M267.579,121.891a9.733,9.733,0,1,0-19.465,0,96.434,96.434,0,0,1-192.867,0,9.733,9.733,0,1,0-19.465,0A116.05,116.05,0,0,0,141.948,237.376v34.435H98.6a9.733,9.733,0,0,0,0,19.465H204.763a9.733,9.733,0,0,0,0-19.465H161.412V237.376A116.051,116.051,0,0,0,267.579,121.891Z" transform="translate(0 33.386)" fill="#959191"/>
    <path id="Path_3413" data-name="Path 3413" d="M139.5,218.091a62.887,62.887,0,0,0,62.816-62.815V62.815a62.816,62.816,0,0,0-125.631,0v92.461A62.885,62.885,0,0,0,139.5,218.091ZM96.153,62.815a43.35,43.35,0,0,1,86.7,0v92.461a43.35,43.35,0,0,1-86.7,0Z" transform="translate(12.176)" fill="#959191"/>
  </g>
</svg>
