<svg xmlns="http://www.w3.org/2000/svg" width="629.82" height="621.311" viewBox="0 0 629.82 621.311">
  <g id="search_icon" transform="translate(0 -0.802)">
    <path id="Path_3375" data-name="Path 3375" d="M614.906,535.245l-144.8-144.811A253.183,253.183,0,0,0,508.987,255.29C508.987,114.732,395.041.8,254.488.8S0,114.732,0,255.29,113.93,509.773,254.488,509.773a253.321,253.321,0,0,0,145.357-45.626L542.922,607.235a50.9,50.9,0,1,0,71.984-71.989ZM254.488,427.323A172.025,172.025,0,1,1,426.51,255.3,172.024,172.024,0,0,1,254.488,427.323Z" fill="#fcfcfc"/>
  </g>
</svg>
