<svg xmlns="http://www.w3.org/2000/svg" width="713.459" height="543.455" viewBox="0 0 713.459 543.455">
  <g id="video_icon" transform="translate(-0.109 -61)">
    <path id="Path_3372" data-name="Path 3372" d="M395.2,273.687,227.98,169.176A20.9,20.9,0,0,0,196,186.9V395.923a20.9,20.9,0,0,0,31.981,17.725L395.2,309.137a20.9,20.9,0,0,0,0-35.45ZM237.8,358.21v-133.6l106.876,66.8Z" transform="translate(72.291 41.315)" fill="#d9d9d9"/>
    <path id="Path_3373" data-name="Path 3373" d="M608.949,61H104.511A104.629,104.629,0,0,0,0,165.511V499.945A104.629,104.629,0,0,0,104.511,604.455H608.949A104.629,104.629,0,0,0,713.459,499.945V165.511A104.629,104.629,0,0,0,608.949,61Zm62.706,438.945a62.778,62.778,0,0,1-62.706,62.707H104.511A62.778,62.778,0,0,1,41.8,499.945V165.511A62.778,62.778,0,0,1,104.511,102.8H608.949a62.778,62.778,0,0,1,62.706,62.706Z" transform="translate(0.109 0)" fill="#d9d9d9"/>
  </g>
</svg>
